<svg width="20" height="23" viewBox="0 0 20 23" fill="none" xmlns="http://www.w3.org/2000/svg">
<path d="M11.3858 23C8.56769 23.007 5.84768 21.9431 3.75427 20.015C1.66086 18.0869 0.343564 15.4322 0.0583472 12.5669C-0.226869 9.7016 0.540363 6.83024 2.21096 4.51078C3.88156 2.19131 6.33621 0.589396 9.09795 0.0163048C9.26522 -0.0181071 9.43885 0.00225702 9.59415 0.0745013C9.74945 0.146745 9.8785 0.267192 9.96296 0.418711C10.0474 0.57023 10.083 0.745108 10.0646 0.918475C10.0462 1.09184 9.97482 1.25487 9.86056 1.38438C8.59238 2.81075 7.75683 4.58283 7.45544 6.48533C7.15405 8.38782 7.39979 10.3388 8.1628 12.1013C8.92582 13.8638 10.1733 15.3618 11.7536 16.4134C13.3339 17.465 15.179 18.025 17.0648 18.0251C17.724 18.025 18.3816 17.9584 19.0281 17.8262C19.1962 17.7914 19.3708 17.812 19.5268 17.885C19.6827 17.958 19.812 18.0796 19.8961 18.2324C19.9793 18.3838 20.0139 18.5581 19.995 18.7307C19.976 18.9033 19.9046 19.0654 19.7907 19.1942C18.7266 20.3922 17.4292 21.3496 15.9818 22.005C14.5344 22.6604 12.9689 22.9993 11.3858 23ZM7.13465 2.43738C5.93699 3.03339 4.87175 3.87426 4.00486 4.90794C3.13797 5.94163 2.48787 7.14613 2.09479 8.44692C1.70171 9.74772 1.57402 11.1171 1.71961 12.4704C1.86521 13.8236 2.281 15.1319 2.94124 16.3144C3.60149 17.4968 4.49215 18.5281 5.5581 19.3446C6.62405 20.1611 7.84261 20.7453 9.13837 21.0611C10.4341 21.3769 11.7795 21.4176 13.0913 21.1806C14.403 20.9437 15.6533 20.4341 16.7646 19.6834C14.812 19.6314 12.9056 19.0656 11.2295 18.0407C9.55333 17.0159 8.16411 15.5666 7.19601 13.8328C6.22792 12.0991 5.71365 10.1395 5.7029 8.14334C5.69215 6.14718 6.18528 4.18191 7.13465 2.43738Z" fill="black"/>
</svg>
