<svg width="29" height="15" viewBox="0 0 29 15" fill="none" xmlns="http://www.w3.org/2000/svg">
<g id="Horizontal Arrow " clip-path="url(#clip0_2051_319)">
<path id="Vector" fill-rule="evenodd" clip-rule="evenodd" d="M2.48629 0.0233787C2.00671 0.0113938 1.53375 0.120717 1.1278 0.337406C0.721842 0.554094 0.401428 0.868329 0.207097 1.24003C0.0127663 1.61173 -0.0466565 2.02406 0.0366957 2.42442C0.120048 2.82478 0.342263 3.19503 0.674964 3.48795L12.7263 14.3544C12.9521 14.5582 13.2251 14.7206 13.5279 14.8317C13.8307 14.9427 14.157 15 14.4869 15C14.8169 15 15.1434 14.9427 15.4462 14.8317C15.749 14.7206 16.0217 14.5582 16.2475 14.3544L28.2989 3.48795C28.5262 3.29387 28.7054 3.06314 28.8257 2.80941C28.946 2.55568 29.0053 2.28409 28.9996 2.01069C28.994 1.73728 28.9237 1.46761 28.793 1.21759C28.6623 0.967575 28.4736 0.74229 28.2384 0.555045C28.0032 0.3678 27.7262 0.222394 27.4236 0.127414C27.121 0.0324349 26.799 -0.0101905 26.4766 0.00205651C26.1542 0.0143036 25.8379 0.0811723 25.5465 0.198716C25.2551 0.31626 24.9948 0.482093 24.7803 0.686419L14.4869 9.96689L4.19384 0.686416C3.97592 0.484873 3.71263 0.322365 3.41937 0.208487C3.12611 0.0946087 2.80873 0.0316671 2.48629 0.0233787Z" fill="url(#paint0_linear_2051_319)"/>
</g>
<defs>
<linearGradient id="paint0_linear_2051_319" x1="0.00116291" y1="7.49891" x2="29.0019" y2="7.49892" gradientUnits="userSpaceOnUse">
<stop stop-color="#CAD1D8"/>
<stop offset="1" stop-color="#BABDC1"/>
</linearGradient>
<clipPath id="clip0_2051_319">
<rect width="15" height="29" fill="white" transform="translate(29) rotate(90)"/>
</clipPath>
</defs>
</svg>
