<svg width="5" height="8" viewBox="0 0 5 8" fill="none" xmlns="http://www.w3.org/2000/svg">
<g id="Small Arrow " clip-path="url(#clip0_2112_31)">
<path id="Vector" fill-rule="evenodd" clip-rule="evenodd" d="M0.00779302 7.31413C0.00379806 7.44642 0.0402389 7.5769 0.112469 7.68888C0.184698 7.80087 0.289443 7.88926 0.413343 7.94287C0.537244 7.99648 0.674685 8.01287 0.808139 7.98988C0.941592 7.96688 1.06501 7.90558 1.16265 7.8138L4.7848 4.4893C4.85273 4.42699 4.90688 4.3517 4.94389 4.26817C4.9809 4.18464 5 4.09463 5 4.00361C5 3.91259 4.9809 3.8225 4.94389 3.73897C4.90688 3.65544 4.85273 3.58023 4.7848 3.51792L1.16265 0.193416C1.09796 0.130706 1.02105 0.0812771 0.936471 0.0480844C0.851894 0.0148918 0.761365 -0.00145278 0.670229 0.00010122C0.579094 0.00165523 0.489202 0.0210558 0.405863 0.0571114C0.322524 0.0931674 0.24743 0.14521 0.185015 0.210088C0.1226 0.274967 0.0741308 0.351396 0.0424712 0.434878C0.0108111 0.518359 -0.00339723 0.607167 0.00068496 0.696102C0.00476715 0.785037 0.0270569 0.87231 0.0662381 0.95269C0.105419 1.03307 0.160697 1.1049 0.228806 1.16406L3.3223 4.00361L0.228806 6.84308C0.161625 6.90319 0.107455 6.97583 0.0694958 7.05673C0.0315362 7.13763 0.0105558 7.22518 0.00779302 7.31413Z" fill="url(#paint0_linear_2112_31)"/>
</g>
<defs>
<linearGradient id="paint0_linear_2112_31" x1="2.49964" y1="7.99968" x2="2.49964" y2="-0.000518606" gradientUnits="userSpaceOnUse">
<stop stop-color="#CAD1D8"/>
<stop offset="1" stop-color="#BABDC1"/>
</linearGradient>
<clipPath id="clip0_2112_31">
<rect width="5" height="8" fill="white"/>
</clipPath>
</defs>
</svg>
