<svg width="35" height="35" viewBox="0 0 35 35" fill="none" xmlns="http://www.w3.org/2000/svg">
<g id="Arrow" clip-path="url(#clip0_15_85)">
<circle id="Ellipse 2" cx="17.5" cy="17.5" r="17.5" fill="white"/>
<path id="Vector" fill-rule="evenodd" clip-rule="evenodd" d="M17.5 0C12.8587 0 8.40752 1.84374 5.12563 5.12563C1.84374 8.40752 0 12.8587 0 17.5C0 22.1413 1.84374 26.5925 5.12563 29.8744C8.40752 33.1563 12.8587 35 17.5 35C22.1413 35 26.5925 33.1563 29.8744 29.8744C33.1563 26.5925 35 22.1413 35 17.5C35 12.8587 33.1563 8.40752 29.8744 5.12563C26.5925 1.84374 22.1413 0 17.5 0ZM14.4038 10.7692L21.5385 17.5L14.4038 24.2308L13.4615 23.3423L19.6538 17.5L13.4615 11.6577L14.4038 10.7692Z" fill="#5BBA47"/>
</g>
<defs>
<clipPath id="clip0_15_85">
<rect width="35" height="35" fill="white"/>
</clipPath>
</defs>
</svg>
