<svg width="50" height="66" viewBox="0 0 50 66" fill="none" xmlns="http://www.w3.org/2000/svg">
<g id="Isolation_Mode" clip-path="url(#clip0_2387_2230)">
<path id="Vector" d="M5.19624 56.9547C3.8419 56.9547 2.59812 56.4292 1.63074 55.4887C0.66335 54.5482 0.138198 53.2758 0.138198 51.9204L0 5.20034C0 3.84493 0.525152 2.57251 1.4649 1.60436C2.40464 0.636211 3.67606 0.138307 5.0304 0.138307L44.7761 0C46.1305 0 47.3742 0.525566 48.3416 1.46605C49.309 2.40654 49.8342 3.67896 49.8342 5.03437L50 51.7267C50 54.5205 47.7612 56.7888 44.9696 56.8164L5.22388 56.9547H5.19624ZM44.8038 1.41073L5.05804 1.54904C4.09066 1.54904 3.17855 1.93629 2.48756 2.62783C1.79657 3.31936 1.43726 4.23219 1.43726 5.20034L1.6031 51.8927C1.6031 52.8609 1.99005 53.7737 2.68104 54.4652C3.37203 55.1567 4.28413 55.5163 5.25152 55.5163L44.9972 55.378C47.0149 55.378 48.618 53.746 48.618 51.7267L48.4522 5.03437C48.4522 3.04275 46.8214 1.41073 44.8038 1.41073Z" fill="white"/>
<path id="Vector_2" d="M15.7917 61.3554L33.6744 61.296C34.9735 61.2917 36.0273 62.3393 36.0316 63.6394C36.0358 64.9118 35.0165 65.9387 33.7451 65.9429L15.7519 66.0026C14.4804 66.0068 13.4544 64.9868 13.4502 63.7144C13.4459 62.4143 14.4927 61.3597 15.7917 61.3554Z" fill="white"/>
<path id="Vector_3" d="M40.9043 15.9906L8.45558 16.0983C6.71539 16.1041 5.30937 17.5206 5.31514 19.2621L5.36344 33.8396C5.36921 35.5812 6.78459 36.9883 8.52478 36.9825L40.9735 36.8748C42.7137 36.8691 44.1197 35.4526 44.1139 33.711L44.0656 19.1335C44.0598 17.392 42.6445 15.9848 40.9043 15.9906Z" fill="white"/>
<path id="Vector_4" d="M41.6133 4.81328L7.78266 4.92555C6.42409 4.93006 5.32641 6.03592 5.33091 7.39556L5.33256 7.89346C5.33707 9.25311 6.44206 10.3517 7.80063 10.3471L41.6313 10.2349C42.9899 10.2304 44.0875 9.1245 44.083 7.76486L44.0814 7.26696C44.0769 5.90732 42.9719 4.80877 41.6133 4.81328Z" fill="white"/>
<path id="Vector_5" d="M11.269 39.3798L7.56535 39.392C6.35943 39.396 5.38508 40.3777 5.38908 41.5845L5.39668 43.8804C5.40068 45.0873 6.38152 46.0624 7.58744 46.0584L11.2911 46.0461C12.497 46.0421 13.4714 45.0605 13.4674 43.8536L13.4598 41.5577C13.4558 40.3509 12.475 39.3758 11.269 39.3798Z" fill="white"/>
<path id="Vector_6" d="M41.9487 39.2779L38.245 39.2902C37.0391 39.2942 36.0648 40.2758 36.0688 41.4827L36.0764 43.7786C36.0804 44.9855 37.0612 45.9606 38.2671 45.9566L41.9708 45.9443C43.1767 45.9403 44.1511 44.9587 44.1471 43.7518L44.1395 41.4559C44.1355 40.2491 43.1546 39.2739 41.9487 39.2779Z" fill="white"/>
</g>
<defs>
<clipPath id="clip0_2387_2230">
<rect width="50" height="66" fill="white"/>
</clipPath>
</defs>
</svg>
