<svg width="50" height="50" viewBox="0 0 50 50" fill="none" xmlns="http://www.w3.org/2000/svg">
<g id="Logo" clip-path="url(#clip0_15_66)">
<path id="Vector" d="M38.603 15.8674V34.4919H33.1462V24.972H33.1421V24.7241C32.9119 25.0047 32.5632 25.1845 32.1723 25.1845H17.9325C17.8848 25.1845 17.8385 25.1817 17.7936 25.1763C17.3877 25.1313 17.0389 24.6614 16.8469 24.3209V34.4906H11.397V15.8674H16.8469V21.1226C16.8469 21.7696 17.3332 22.2273 17.8072 22.3117C17.8086 22.3117 17.9502 22.3321 18.0238 22.3321H31.9339C32.0075 22.3321 32.081 22.3253 32.1505 22.3117C32.7158 22.2095 33.1435 21.7151 33.1435 21.1226V15.8674H38.6002H38.603Z" fill="white"/>
<path id="Vector_2" d="M25.0007 0C11.1927 0 0 11.1927 0 25.0007C0 38.8087 11.1927 50.0014 25.0007 50.0014C38.8087 50.0014 50.0014 38.8087 50.0014 25.0007C50.0014 11.1927 38.8073 0 25.0007 0ZM25.0007 46.5211C13.1147 46.5211 3.4789 36.8853 3.4789 25.0007C3.4789 13.116 13.1147 3.48026 25.0007 3.48026C36.8867 3.48026 46.5211 13.1147 46.5211 25.0007C46.5211 36.8867 36.8853 46.5211 25.0007 46.5211Z" fill="white"/>
</g>
<defs>
<clipPath id="clip0_15_66">
<rect width="50" height="50" fill="white"/>
</clipPath>
</defs>
</svg>
