<svg width="50" height="52" viewBox="0 0 50 52" fill="none" xmlns="http://www.w3.org/2000/svg">
<g id="Logo_x2F_font_x2F_color_pallete" clip-path="url(#clip0_2377_984)">
<path id="Vector" d="M44.9759 5.16882V5.18761L44.9572 47.0265H35.4324V40.4678H35.4249V27.1701C35.2008 28.2595 34.2483 29.0784 33.1016 29.0784H16.6292C15.3854 29.0784 14.3619 28.1092 14.2648 26.8809L14.2798 47.0265H4.68771L4.66156 5.18761H14.2424L16.4126 22.8803C16.6703 23.6053 17.3539 24.0824 18.1158 24.0861C18.4296 24.0861 30.9389 24.1011 31.488 24.1011C32.2089 24.1011 32.8625 23.6729 33.1501 23.008L35.4249 5.16882H44.9759Z" fill="white"/>
<path id="Vector_2" d="M46.4662 0H3.64185C1.63229 0 0 1.6378 0 3.65874V48.3413C0 49.3367 0.395934 50.242 1.04213 50.8994H1.04586C1.04586 50.8994 1.06454 50.9219 1.07575 50.9332C1.73314 51.5943 2.63707 52 3.63811 52H45.9395C46.9368 52 47.8445 51.5943 48.5019 50.9332C48.5131 50.9257 48.5243 50.9144 48.5318 50.9031C48.6102 50.8167 48.6887 50.7341 48.7596 50.6439C48.8343 50.5538 48.9016 50.4599 48.9651 50.366C49.0323 50.2683 49.0921 50.1669 49.1444 50.0654C49.1855 49.9903 49.2265 49.9114 49.2564 49.8326C49.3647 49.5884 49.4469 49.333 49.5029 49.07C49.5515 48.8334 49.5777 48.5892 49.5777 48.3413V3.1366C49.5777 1.4049 48.1807 0 46.4625 0H46.4662ZM44.9759 5.1876L44.9572 47.0265H35.4324V40.4678H35.4249V27.1701C35.2008 28.2595 34.2483 29.0784 33.1016 29.0784H16.6292C15.3854 29.0784 14.3619 28.1092 14.2648 26.8809L14.2798 47.0265H4.68771L4.66156 5.1876H14.2424L16.4126 22.8803C16.6703 23.6053 17.3539 24.0824 18.1158 24.0861C18.4296 24.0861 30.9389 24.1011 31.488 24.1011C32.2089 24.1011 32.8625 23.6729 33.1501 23.008L35.4249 5.16882H44.9759V5.1876Z" fill="#50B848"/>
</g>
<defs>
<clipPath id="clip0_2377_984">
<rect width="49.5814" height="52" fill="white"/>
</clipPath>
</defs>
</svg>
