<svg width="30" height="15" viewBox="0 0 30 15" fill="none" xmlns="http://www.w3.org/2000/svg">
<path id="Menu bar" d="M1.5 2.5H28.5C28.8978 2.5 29.2794 2.3683 29.5607 2.13388C29.842 1.89946 30 1.58152 30 1.25C30 0.918479 29.842 0.600537 29.5607 0.366117C29.2794 0.131696 28.8978 0 28.5 0H1.5C1.10218 0 0.720644 0.131696 0.43934 0.366117C0.158035 0.600537 0 0.918479 0 1.25C0 1.58152 0.158035 1.89946 0.43934 2.13388C0.720644 2.3683 1.10218 2.5 1.5 2.5ZM28.5 12.5H1.5C1.10218 12.5 0.720644 12.6317 0.43934 12.8661C0.158035 13.1005 0 13.4185 0 13.75C0 14.0815 0.158035 14.3995 0.43934 14.6339C0.720644 14.8683 1.10218 15 1.5 15H28.5C28.8978 15 29.2794 14.8683 29.5607 14.6339C29.842 14.3995 30 14.0815 30 13.75C30 13.4185 29.842 13.1005 29.5607 12.8661C29.2794 12.6317 28.8978 12.5 28.5 12.5ZM28.5 6.25H1.5C1.10218 6.25 0.720644 6.3817 0.43934 6.61612C0.158035 6.85054 0 7.16848 0 7.5C0 7.83152 0.158035 8.14946 0.43934 8.38388C0.720644 8.6183 1.10218 8.75 1.5 8.75H28.5C28.8978 8.75 29.2794 8.6183 29.5607 8.38388C29.842 8.14946 30 7.83152 30 7.5C30 7.16848 29.842 6.85054 29.5607 6.61612C29.2794 6.3817 28.8978 6.25 28.5 6.25Z" fill="#ECF1F4"/>
</svg>
