<svg width="10" height="10" viewBox="0 0 10 10" fill="none" xmlns="http://www.w3.org/2000/svg">
<path id="Search" d="M9.72487 9.72487C9.35804 10.0917 8.76345 10.0917 8.39659 9.72487L6.73913 8.06739C6.0577 8.50454 5.25221 8.76499 4.3825 8.76499C1.96229 8.76499 0 6.80298 0 4.38248C0 1.96199 1.96229 0 4.3825 0C6.80303 0 8.76501 1.96196 8.76501 4.38248C8.76501 5.2519 8.50423 6.0577 8.06739 6.73944L9.72487 8.39692C10.0917 8.76376 10.0917 9.35804 9.72487 9.72487ZM4.3825 1.25213C2.65377 1.25213 1.25215 2.65344 1.25215 4.38247C1.25215 6.11149 2.65379 7.51282 4.3825 7.51282C6.11151 7.51282 7.51284 6.11149 7.51284 4.38247C7.51284 2.65344 6.11151 1.25213 4.3825 1.25213Z" fill="#0A3D5E"/>
</svg>
