<svg width="154" height="20" viewBox="0 0 154 20" fill="none" xmlns="http://www.w3.org/2000/svg">
<g id="Symbol">
<path id="Instagram" d="M82.34 3.46C82.1027 3.46 81.8707 3.53038 81.6733 3.66224C81.476 3.79409 81.3222 3.98151 81.2313 4.20078C81.1405 4.42005 81.1168 4.66133 81.1631 4.89411C81.2094 5.12689 81.3236 5.34071 81.4915 5.50853C81.6593 5.67635 81.8731 5.79064 82.1059 5.83694C82.3387 5.88324 82.5799 5.85948 82.7992 5.76866C83.0185 5.67783 83.2059 5.52402 83.3378 5.32668C83.4696 5.12935 83.54 4.89734 83.54 4.66C83.54 4.34174 83.4136 4.03652 83.1885 3.81147C82.9635 3.58643 82.6583 3.46 82.34 3.46ZM86.94 5.88C86.9206 5.0503 86.7652 4.2294 86.48 3.45C86.2257 2.78313 85.83 2.17928 85.32 1.68C84.8248 1.16743 84.2196 0.774176 83.55 0.53C82.7727 0.236161 81.9508 0.07721 81.12 0.0599999C80.06 -5.58794e-08 79.72 0 77 0C74.28 0 73.94 -5.58794e-08 72.88 0.0599999C72.0492 0.07721 71.2273 0.236161 70.45 0.53C69.7817 0.776649 69.1769 1.16956 68.68 1.68C68.1674 2.17518 67.7742 2.78044 67.53 3.45C67.2362 4.22734 67.0772 5.04915 67.06 5.88C67 6.94 67 7.28 67 10C67 12.72 67 13.06 67.06 14.12C67.0772 14.9508 67.2362 15.7727 67.53 16.55C67.7742 17.2196 68.1674 17.8248 68.68 18.32C69.1769 18.8304 69.7817 19.2234 70.45 19.47C71.2273 19.7638 72.0492 19.9228 72.88 19.94C73.94 20 74.28 20 77 20C79.72 20 80.06 20 81.12 19.94C81.9508 19.9228 82.7727 19.7638 83.55 19.47C84.2196 19.2258 84.8248 18.8326 85.32 18.32C85.8322 17.8226 86.2283 17.2182 86.48 16.55C86.7652 15.7706 86.9206 14.9497 86.94 14.12C86.94 13.06 87 12.72 87 10C87 7.28 87 6.94 86.94 5.88ZM85.14 14C85.1327 14.6348 85.0178 15.2637 84.8 15.86C84.6403 16.2952 84.3839 16.6884 84.05 17.01C83.7256 17.3405 83.3332 17.5964 82.9 17.76C82.3037 17.9778 81.6748 18.0927 81.04 18.1C80.04 18.15 79.67 18.16 77.04 18.16C74.41 18.16 74.04 18.16 73.04 18.1C72.3809 18.1123 71.7246 18.0109 71.1 17.8C70.6858 17.6281 70.3114 17.3728 70 17.05C69.6681 16.7287 69.4148 16.3352 69.26 15.9C69.0159 15.2952 68.8804 14.6519 68.86 14C68.86 13 68.8 12.63 68.8 10C68.8 7.37 68.8 7 68.86 6C68.8645 5.35106 68.983 4.70795 69.21 4.1C69.386 3.67791 69.6563 3.30166 70 3C70.3038 2.65617 70.6793 2.3831 71.1 2.2C71.7096 1.98004 72.352 1.86508 73 1.86C74 1.86 74.37 1.8 77 1.8C79.63 1.8 80 1.8 81 1.86C81.6348 1.86728 82.2637 1.98225 82.86 2.2C83.3144 2.36865 83.7223 2.64285 84.05 3C84.3777 3.30718 84.6338 3.68273 84.8 4.1C85.0223 4.70893 85.1373 5.35178 85.14 6C85.19 7 85.2 7.37 85.2 10C85.2 12.63 85.19 13 85.14 14ZM77 4.87C75.9858 4.87198 74.995 5.17453 74.1527 5.73942C73.3103 6.30431 72.6544 7.1062 72.2676 8.04375C71.8809 8.98131 71.7807 10.0125 71.9798 11.0069C72.1789 12.0014 72.6682 12.9145 73.3861 13.631C74.1039 14.3474 75.018 14.835 76.0129 15.0321C77.0077 15.2293 78.0387 15.1271 78.9755 14.7385C79.9123 14.35 80.7129 13.6924 81.2761 12.849C81.8394 12.0056 82.14 11.0142 82.14 10C82.1413 9.3251 82.0092 8.65661 81.7512 8.03296C81.4933 7.40931 81.1146 6.84281 80.6369 6.36605C80.1592 5.88929 79.5919 5.51168 78.9678 5.25493C78.3436 4.99818 77.6749 4.86736 77 4.87ZM77 13.33C76.3414 13.33 75.6976 13.1347 75.15 12.7688C74.6023 12.4029 74.1755 11.8828 73.9235 11.2743C73.6714 10.6659 73.6055 9.99631 73.734 9.35035C73.8625 8.70439 74.1796 8.11104 74.6453 7.64533C75.111 7.17963 75.7044 6.86247 76.3503 6.73398C76.9963 6.6055 77.6659 6.67144 78.2743 6.92348C78.8828 7.17552 79.4029 7.60234 79.7688 8.14995C80.1347 8.69757 80.33 9.34139 80.33 10C80.33 10.4373 80.2439 10.8703 80.0765 11.2743C79.9092 11.6784 79.6639 12.0454 79.3547 12.3547C79.0454 12.6639 78.6784 12.9092 78.2743 13.0765C77.8703 13.2439 77.4373 13.33 77 13.33Z" fill="white"/>
<path id="Facebok" d="M20 3.33356C20 1.582 18.4187 0 16.6667 0H3.33333C1.58133 0 0 1.582 0 3.33356V16.6664C0 18.418 1.58133 20 3.33356 20H10V12.4444H7.55556V9.11111H10V7.81244C10 5.57267 11.6818 3.55556 13.75 3.55556H16.4444V6.88889H13.75C13.4551 6.88889 13.1111 7.24689 13.1111 7.78311V9.11111H16.4444V12.4444H13.1111V20H16.6667C18.4187 20 20 18.418 20 16.6664V3.33356Z" fill="white"/>
<path id="Youtube" d="M154 4.27238C154 1.91238 152.662 0 151.011 0H136.989C135.338 0 134 1.91238 134 4.27238V15.7276C134 18.0873 135.338 20 136.989 20H151.011C152.662 20 154 18.0873 154 15.7276V4.27238ZM142 14.8333V4.07302L147.712 9.45302L142 14.8333Z" fill="white"/>
</g>
</svg>
